<svg xmlns="http://www.w3.org/2000/svg" width="101" height="22" viewBox="0 0 101 22">
    <g fill="none" fill-rule="evenodd">
        <path fill="#000" d="M26.75.229v12.974c0 .747.11 1.44.335 2.084.223.644.549 1.206.976 1.688.426.482.955.861 1.585 1.135.63.275 1.357.413 2.18.413.793 0 1.504-.138 2.134-.413a4.64 4.64 0 0 0 1.594-1.12c.43-.472.761-1.028.99-1.672a6.182 6.182 0 0 0 .344-2.084V.229h3.796v12.974c0 1.265-.214 2.426-.641 3.484a8.005 8.005 0 0 1-1.806 2.738c-.778.768-1.71 1.363-2.798 1.79-1.088.425-2.292.636-3.613.636-1.25 0-2.414-.202-3.49-.606a8.346 8.346 0 0 1-2.813-1.727 7.876 7.876 0 0 1-1.876-2.722c-.453-1.068-.678-2.266-.678-3.593V.229h3.78zm27.15 0c1.047 0 2.01.179 2.89.537a6.918 6.918 0 0 1 2.279 1.485 6.662 6.662 0 0 1 1.494 2.264c.355.877.534 1.827.534 2.854 0 1.048-.176 2.005-.527 2.87a6.665 6.665 0 0 1-1.479 2.248 6.668 6.668 0 0 1-2.263 1.47c-.875.348-1.83.521-2.866.521h-5v6.907h-3.797V.23h8.736zm31.827 0l5.406 7.468L96.538.229h4.466l-7.639 10.553-2.232 3.084-5.406 7.468h-4.466L88.9 10.782 81.26.229h4.466zM72.609 0l8.679 20.978H77.24L70.799 5.055h-.015l-6.44 15.923H60.31L68.99 0h3.619zM3.854 0v8.946H14.47V0h3.884v20.978h-3.884v-8.73H3.854v8.73H0V0h3.854zm49.894 3.573h-4.786v7.56h4.802c.497 0 .962-.095 1.394-.287a3.433 3.433 0 0 0 1.12-.793 3.78 3.78 0 0 0 .748-1.19c.183-.457.275-.95.275-1.478 0-.53-.092-1.025-.275-1.486a3.78 3.78 0 0 0-.755-1.205 3.655 3.655 0 0 0-1.128-.817 3.255 3.255 0 0 0-1.395-.304z"/>
        <path fill="#FA0" d="M92.406 14.692l4.132 6.642h4.466l-6.365-9.727z"/>
    </g>
</svg>
